<svg version="1.2" xmlns="http://www.w3.org/2000/svg" viewBox="0 0 736 736" width="736" height="736">
	<title>hor</title>
	<style>
		.s0 { fill: #000000 } 
	</style>
	<filter id="f0">
		<feFlood flood-color="#306efb" flood-opacity="1" />
		<feBlend mode="normal" in2="SourceGraphic"/>
		<feComposite in2="SourceAlpha" operator="in" />
	</filter>
	<g filter="url(#f0)">
		<path class="s0" d="m206.7 185.7c-1.2 1.1-0.8 153.1 0.3 153.8 0.6 0.3 1 0.2 1-0.3 0-1.7 10.4-17.9 16.8-26.1 13.5-17.3 24.5-27.4 43.7-40 5.5-3.7 14.4-8.6 19.8-11.1l9.7-4.5-0.1-28.5c0-19.5-0.4-29.5-1.3-31.8-1.6-4.6-7.2-10-11.5-11.2-4-1.1-77.3-1.4-78.4-0.3z"/>
		<path class="s0" d="m447.7 185.6c-0.4 0.4-0.7 30.8-0.7 67.6 0 74.4-0.1 76-6.5 89-6.4 12.9-14.2 21.3-27 29.1-10 6-18.2 7.8-40 8.6-15 0.6-20 1.1-23.5 2.6-11 4.5-18.2 11.3-23.8 22.4l-3.7 7.5-0.3 28.7-0.3 28.6 6.3 0.6c14.8 1.5 60.4 2 70.3 0.8 25.1-3.2 50.3-12.4 70.5-25.9 34.3-23 58.1-59.1 67.1-101.6 2.1-9.8 2.2-11.9 2-78.1-0.3-75.9 0.2-70.7-7.4-76.9l-3.9-3.1-39.2-0.3c-21.5-0.2-39.5 0-39.9 0.4z"/>
		<path class="s0" d="m340.5 265.4c-39 6.5-71.9 25.2-96.7 54.6-20 23.8-32 50.4-36.3 80.5-1.2 7.9-1.5 23.3-1.5 72.5 0 58.5 0.2 62.8 1.9 66.5 2.2 4.9 6.9 9.1 11.9 10.5 2.4 0.7 16.4 1 40.7 0.8l37-0.3 0.5-70.5c0.4-50.3 0.9-71.7 1.8-74.7 3.5-12.5 11.8-25.4 21.3-33.3 7.9-6.6 12.8-9.3 22.4-12.6 7.1-2.4 10.1-2.7 27-3.4 13.9-0.5 20.4-1.2 24.1-2.5 10.2-3.5 21.2-14.3 25.5-25.2 2.2-5.5 2.4-7.2 2.7-33.9l0.3-28.1-4.8-0.7c-2.6-0.3-19.4-0.8-37.3-1.1-24.5-0.3-34.5-0.1-40.5 0.9z"/>
		<path class="s0" d="m532.7 404.3c-9.7 16.7-21.5 30.8-35.7 43.2-12.5 10.8-22.8 17.7-37.4 25.1l-12.1 6.1v30 30l2.8 4.1c5.4 7.7 5.1 7.7 49 7.7h38.8l-0.1-76.9c0-42.4-0.2-77.1-0.3-77.2-0.1-0.1-2.4 3.5-5 7.9z"/>
	</g>
</svg>